<svg viewBox="0 0 92 138" fill="none" xmlns="http://www.w3.org/2000/svg" height="200" class="hidden sm:block">
  <path
    d="M7.33105 47.2695V23.1484C7.33105 19.6572 8.6429 16.6209 11.2666 14.0396C13.721 11.6486 16.7996 10.4531 20.5024 10.4531C23.8667 10.4531 26.776 11.6803 29.2305 14.1348C29.696 14.6003 30.1191 15.1504 30.5 15.7852C30.8809 15.1715 31.304 14.632 31.7695 14.1665C34.4144 11.6909 37.3237 10.4531 40.4976 10.4531C44.158 10.4531 47.2367 11.6486 49.7334 14.0396C52.3571 16.5786 53.6689 19.6149 53.6689 23.1484V44.4131L47.6387 47.2695H47.3213V23.1484C47.3213 20.7152 46.6548 18.9378 45.3218 17.8164C44.0099 16.6738 42.4019 16.1025 40.4976 16.1025C38.5933 16.1025 36.9746 16.6738 35.6416 17.8164C34.3298 18.9378 33.6738 20.7152 33.6738 23.1484V44.4131L27.6436 47.2695H27.3262V23.1484C27.3262 20.7152 26.6597 18.9378 25.3267 17.8164C24.0148 16.6738 22.4067 16.1025 20.5024 16.1025C18.5981 16.1025 16.9795 16.6738 15.6465 17.8164C14.3346 18.9378 13.6787 20.7152 13.6787 23.1484V44.4131L7.64844 47.2695H7.33105Z"
    fill="#7C3AED"></path>
  <path
    d="M73.1489 47.0352V36.7354H60.4165C57.0868 36.7354 55.4219 35.5622 55.4219 33.2158C55.4219 31.9564 55.8618 30.6797 56.7417 29.3857L73.1489 5.8877C76.5994 5.8877 78.3247 7.57845 78.3247 10.96V32.3359H82.7759V32.5947L80.835 36.7354H78.3247V44.7061L73.4077 47.0352H73.1489ZM73.1489 32.3359V13.3408L60.0542 32.3359H73.1489Z"
    fill="#4F46E5"></path>
  <path
    d="M33.8325 54.6152V68.0186H47.2358V68.3848L44.2695 74.6836H33.8325V85.1206L27.5337 88.0869H27.1675V74.6836H13.7642V74.3174L16.7305 68.0186H27.1675V57.5815L33.4663 54.6152H33.8325Z"
    fill="#4F46E5"></path>
  <path
    d="M11.828 110.764V98.0049L15.4461 96.291H15.6366V110.764C15.6366 112.224 16.0301 113.296 16.8172 113.982C17.617 114.655 18.5882 114.991 19.7308 114.991C20.8734 114.991 21.8382 114.655 22.6253 113.982C23.4251 113.296 23.825 112.224 23.825 110.764V98.0049L27.4432 96.291H27.6336V118.571C27.6336 120.666 26.8465 122.488 25.2723 124.037C23.7996 125.471 21.9525 126.188 19.7308 126.188H13.8656V125.998L15.389 122.799H19.7308C20.8734 122.799 21.8446 122.456 22.6444 121.771C23.4315 121.085 23.825 120.019 23.825 118.571V116.762C22.8856 117.841 21.5208 118.381 19.7308 118.381C17.5599 118.381 15.7127 117.664 14.1893 116.229C12.6151 114.731 11.828 112.909 11.828 110.764ZM46.2363 117.048L42.6182 118.762H42.4277V116.762C41.4121 117.841 40.0474 118.381 38.3335 118.381C35.9595 118.381 34.1123 117.664 32.792 116.229C31.4717 114.794 30.8115 113.1 30.8115 111.145C30.8115 109.113 31.5288 107.387 32.9634 105.965C34.3472 104.594 36.1372 103.908 38.3335 103.908C39.895 103.908 41.2598 104.448 42.4277 105.527C42.4277 103.28 42.0342 101.801 41.2471 101.09C40.4854 100.404 39.5142 100.062 38.3335 100.062H33.7061V99.8711L35.2295 96.6719H38.3335C40.5552 96.6719 42.4023 97.3892 43.875 98.8237C45.4492 100.36 46.2363 102.182 46.2363 104.289V117.048ZM34.5439 111.145C34.5439 112.274 34.8867 113.208 35.5723 113.944C36.2324 114.655 37.1592 115.01 38.3525 115.01C39.5967 115.01 40.5615 114.648 41.2471 113.925C42.0088 113.112 42.3896 112.198 42.3896 111.183C42.3896 110.04 41.9961 109.113 41.209 108.402C40.4219 107.691 39.4761 107.336 38.3716 107.336C37.2163 107.336 36.2896 107.71 35.5913 108.459C34.8931 109.208 34.5439 110.104 34.5439 111.145ZM49.4142 110.764V98.0049L53.0324 96.291H53.2228V110.764C53.2228 112.224 53.6164 113.296 54.4035 113.982C55.2033 114.655 56.1745 114.991 57.3171 114.991C58.4596 114.991 59.4245 114.655 60.2116 113.982C61.0114 113.296 61.4113 112.224 61.4113 110.764V98.0049L65.0295 96.291H65.2199V118.571C65.2199 120.666 64.4328 122.488 62.8586 124.037C61.3859 125.471 59.5387 126.188 57.3171 126.188H51.4518V125.998L52.9753 122.799H57.3171C58.4596 122.799 59.4308 122.456 60.2306 121.771C61.0177 121.085 61.4113 120.019 61.4113 118.571V116.762C60.4718 117.841 59.1071 118.381 57.3171 118.381C55.1462 118.381 53.299 117.664 51.7755 116.229C50.2013 114.731 49.4142 112.909 49.4142 110.764Z"
    fill="#EA580C"></path>
  <path
    d="M78.2644 72.3402L78.36 90.3331L73.2704 92.7772L73.0019 92.7786L72.8934 72.3688C72.8824 70.3099 72.3194 68.8 71.2042 67.8391C70.0712 66.8962 68.6991 66.4291 67.0878 66.4376C65.4765 66.4462 64.1184 66.9279 63.0134 67.8827C61.8906 68.8554 61.3347 70.3713 61.3457 72.4302L61.4413 90.4231L56.3517 92.8672L56.0832 92.8686L55.9161 61.4481C55.9004 58.4941 56.9967 55.919 59.2051 53.723C61.2712 51.6889 63.8707 50.6635 67.0038 50.6468L75.2752 50.6029L75.2766 50.8714L73.1522 55.3945L67.0293 55.427C65.418 55.4356 64.0509 55.9263 62.9281 56.8991C61.8233 57.8718 61.2763 59.3786 61.2871 61.4196L61.3007 63.9708C62.6174 62.442 64.538 61.6709 67.0624 61.6574C70.1239 61.6411 72.7342 62.6388 74.8934 64.6505C77.1246 66.7513 78.2483 69.3145 78.2644 72.3402Z"
    fill="#7C3AED"></path>
  <path
    d="M73.4541 124.578C72.8389 123.945 72.5312 123.189 72.5312 122.311C72.5312 121.414 72.8389 120.649 73.4541 120.017C74.0693 119.384 74.8164 119.067 75.6953 119.067C76.5742 119.067 77.3213 119.384 77.9365 120.017C78.5518 120.649 78.8594 121.414 78.8594 122.311C78.8594 123.189 78.5518 123.945 77.9365 124.578C77.3213 125.211 76.5742 125.527 75.6953 125.527C74.8164 125.527 74.0693 125.211 73.4541 124.578ZM78.0684 84.1309H78.332V111.553L73.3223 113.926H73.0586V86.5039L78.0684 84.1309Z"
    fill="#7C3AED"></path>
</svg>